<svg width="32" height="39" viewBox="0 0 32 39" fill="none" xmlns="http://www.w3.org/2000/svg">
<path d="M3 39C2.175 39 1.46875 38.7063 0.88125 38.1188C0.29375 37.5313 0 36.825 0 36V17.3C0 16.475 0.29375 15.7688 0.88125 15.1813C1.46875 14.5938 2.175 14.3 3 14.3H6.5V9.5C6.5 6.87167 7.42677 4.63125 9.2803 2.77875C11.1338 0.92625 13.3755 0 16.0053 0C18.6351 0 20.875 0.92625 22.725 2.77875C24.575 4.63125 25.5 6.87167 25.5 9.5V14.3H29C29.825 14.3 30.5312 14.5938 31.1187 15.1813C31.7062 15.7688 32 16.475 32 17.3V36C32 36.825 31.7062 37.5313 31.1187 38.1188C30.5312 38.7063 29.825 39 29 39H3ZM3 36H29V17.3H3V36ZM9.5 14.3H22.5V9.5C22.5 7.69443 21.8686 6.15972 20.6059 4.89585C19.3431 3.63195 17.8098 3 16.0059 3C14.202 3 12.6667 3.63195 11.4 4.89585C10.1333 6.15972 9.5 7.69443 9.5 9.5V14.3Z" fill="#D7D7D7"/>
<path fill-rule="evenodd" clip-rule="evenodd" d="M18.8111 26.9778C19.553 26.2305 20 25.1964 20 24.0769C20 21.8971 18.2796 20 16 20C13.7204 20 12 21.8971 12 24.0769C12 25.1964 12.447 26.2305 13.1889 26.9778L12.6845 30.7338C12.6077 31.3055 12.7815 31.8826 13.1613 32.3167C13.5411 32.7509 14.0898 33 14.6667 33H17.3333C17.9102 33 18.4589 32.7509 18.8387 32.3167C19.2185 31.8826 19.3923 31.3055 19.3155 30.7338L18.8111 26.9778ZM16.6667 26.0357C16.8998 25.9501 17.1131 25.8209 17.2975 25.6575C17.7274 25.2766 18 24.7098 18 24.0769C18 22.9299 17.1046 22 16 22C14.8954 22 14 22.9299 14 24.0769C14 24.7098 14.2726 25.2766 14.7025 25.6575C14.8869 25.8209 15.1002 25.9501 15.3333 26.0357L14.6667 31H17.3333L16.6667 26.0357Z" fill="#D7D7D7"/>
</svg>
