<svg width="87" height="87" viewBox="0 0 87 87" fill="none" xmlns="http://www.w3.org/2000/svg">
<path d="M43.1375 87C31.1347 87 20.9444 82.7507 12.5667 74.2521C5.03895 66.6158 0.893183 57.5324 0.129377 47.0019C-0.0154553 45.0052 1.62297 43.3792 3.625 43.3792V43.3792C5.62703 43.3792 7.23106 45.0056 7.40485 47.0001C8.14729 55.5209 11.5596 62.8931 17.6417 69.1167C24.5694 76.2056 33.0681 79.75 43.1375 79.75C53.3681 79.75 62.0278 76.1653 69.1167 68.9958C76.2056 61.8264 79.75 53.1264 79.75 42.8958C79.75 32.9069 76.1653 24.4687 68.9958 17.5812C61.8264 10.6937 53.2069 7.25 43.1375 7.25C37.6597 7.25 32.5243 8.49861 27.7312 10.9958C25.5353 12.1399 23.4704 13.4531 21.5365 14.9354C18.8293 17.0105 20.5161 20.9042 23.9271 20.9042H24.2875C26.2895 20.9042 27.9125 22.5271 27.9125 24.5292V24.5292C27.9125 26.5312 26.2895 28.1542 24.2875 28.1542H7.65834C4.89691 28.1542 2.65833 25.9156 2.65833 23.1542V6.64583C2.65833 4.6438 4.2813 3.02083 6.28333 3.02083H6.46017C8.36454 3.02083 9.90833 4.56463 9.90833 6.46899V6.46899C9.90833 9.67491 14.1195 11.3284 16.6431 9.35119C19.1688 7.37228 21.8982 5.66494 24.8312 4.22917C30.591 1.40972 36.6931 0 43.1375 0C49.1792 0 54.8583 1.12778 60.175 3.38333C65.4917 5.63889 70.1437 8.72014 74.1312 12.6271C78.1187 16.534 81.2604 21.1056 83.5562 26.3417C85.8521 31.5778 87 37.2167 87 43.2583C87 49.3 85.8521 54.9792 83.5562 60.2958C81.2604 65.6125 78.1187 70.2444 74.1312 74.1917C70.1437 78.1389 65.4917 81.2604 60.175 83.5562C54.8583 85.8521 49.1792 87 43.1375 87ZM61.1792 60.6208C59.7543 62.0457 57.4465 62.0532 56.0123 60.6377L41.4835 46.2975C40.5316 45.358 39.9958 44.0763 39.9958 42.7389V22.5958C39.9958 20.5938 41.6188 18.9708 43.6208 18.9708V18.9708C45.6229 18.9708 47.2458 20.5938 47.2458 22.5958V39.7048C47.2458 41.05 47.7879 42.3386 48.7497 43.2792L61.1504 55.4084C62.6089 56.835 62.6219 59.1781 61.1792 60.6208V60.6208Z" fill="#827952"/>
</svg>
