<svg width="64" height="89" viewBox="0 0 64 89" fill="none" xmlns="http://www.w3.org/2000/svg">
<path fill-rule="evenodd" clip-rule="evenodd" d="M50.2375 75.0811C51.4125 73.8928 52 72.4642 52 70.7955L52 6.06818C52 4.39943 51.4125 2.97087 50.2375 1.78252C49.0625 0.59417 47.65 -2.08285e-06 46 -2.01072e-06L6 -2.62268e-07C4.35 -1.90145e-07 2.9375 0.594172 1.7625 1.78252C0.587496 2.97088 -3.69801e-06 4.39943 -3.62506e-06 6.06818L-7.95746e-07 70.7955C-7.22803e-07 72.4642 0.587499 73.8928 1.7625 75.0811C2.9375 76.2695 4.35 76.8636 6 76.8636L46 76.8636C47.65 76.8636 49.0625 76.2695 50.2375 75.0811ZM64 82.9318L64 12.1364L58 12.1364L58 82.9318L12 82.9318L12 89L58 89C59.65 89 61.0625 88.4058 62.2375 87.2175C63.4125 86.0291 64 84.6006 64 82.9318ZM46 16.1818L46 60.6818L46 70.7955L36 70.7955L16 70.7955L6 70.7955L6 60.6818L6 16.1818L6 6.06818L16 6.06818L36 6.06818L46 6.06818L46 16.1818Z" fill="#827952"/>
</svg>
