<svg width="65" height="87" viewBox="0 0 65 87" fill="none" xmlns="http://www.w3.org/2000/svg">
<path fill-rule="evenodd" clip-rule="evenodd" d="M0.00536544 4.53086C-0.0939053 2.83591 1.19625 1.38114 2.887 1.28155L24.5522 0.00538684C26.2429 -0.0942053 27.694 1.19909 27.7933 2.89404L29.729 35.9446C29.8283 37.6396 28.5381 39.0943 26.8474 39.1939L5.18221 40.4701C3.49146 40.5697 2.04036 39.2764 1.94109 37.5814L0.00536544 4.53086ZM6.30787 7.23919L7.8841 34.1518L23.4265 33.2363L21.8503 6.32368L6.30787 7.23919Z" fill="#827952"/>
<path fill-rule="evenodd" clip-rule="evenodd" d="M36.661 2.95004C36.753 1.25467 38.1985 -0.0448982 39.8897 0.0473683L61.5601 1.22966C63.2513 1.32193 64.5477 2.77109 64.4557 4.46646L62.6624 37.5251C62.5704 39.2205 61.1249 40.52 59.4338 40.4278L37.7633 39.2455C36.0721 39.1532 34.7757 37.7041 34.8677 36.0087L36.661 2.95004ZM42.6188 6.3539L41.1585 33.2731L56.7047 34.1213L58.165 7.20206L42.6188 6.3539Z" fill="#827952"/>
<path fill-rule="evenodd" clip-rule="evenodd" d="M1.35827 49.5813C1.39981 47.884 2.80605 46.5417 4.49921 46.5834L26.1952 47.1173C27.8883 47.159 29.2272 48.5688 29.1857 50.2661L28.3758 83.3637C28.3343 85.0611 26.928 86.4033 25.2349 86.3616L3.53892 85.8277C1.84576 85.786 0.506855 84.3762 0.548389 82.6789L1.35827 49.5813ZM7.41454 52.8056L6.75506 79.7564L22.3196 80.1395L22.979 53.1886L7.41454 52.8056Z" fill="#827952"/>
<path fill-rule="evenodd" clip-rule="evenodd" d="M34.3362 51.2207C34.1862 49.5295 35.4322 48.0365 37.1192 47.886L58.7363 45.9575C60.4233 45.807 61.9125 47.056 62.0626 48.7472L64.9878 81.7245C65.1378 83.4157 63.8918 84.9087 62.2048 85.0592L40.5877 86.9877C38.9007 87.1382 37.4114 85.8892 37.2614 84.198L34.3362 51.2207ZM40.7171 53.7379L43.099 80.5909L58.6069 79.2074L56.225 52.3544L40.7171 53.7379Z" fill="#827952"/>
</svg>
