<svg width="64" height="91" viewBox="0 0 64 91" fill="none" xmlns="http://www.w3.org/2000/svg">
<path fill-rule="evenodd" clip-rule="evenodd" d="M30.0515 41.3373C30.6504 40.6566 30.9267 39.861 30.8803 38.9503L29.0834 3.62757C29.0371 2.7169 28.6815 1.95339 28.0166 1.33703C27.3518 0.720671 26.5757 0.435067 25.6884 0.480206L4.17773 1.57448C3.29042 1.61962 2.54732 1.9825 1.94843 2.66315C1.34955 3.3438 1.07327 4.13946 1.11959 5.05012L2.9165 40.3729C2.96283 41.2835 3.31843 42.047 3.98329 42.6634C4.64816 43.2798 5.42425 43.5654 6.31156 43.5202L27.8222 42.426C28.7095 42.3808 29.4526 42.0179 30.0515 41.3373ZM27.6537 39.1145L6.1431 40.2087L4.34619 4.88598L25.8568 3.79171L27.6537 39.1145Z" fill="#827952"/>
<path fill-rule="evenodd" clip-rule="evenodd" d="M36.4551 1.65331C35.8063 2.28658 35.4705 3.059 35.4477 3.97056L34.5611 39.3279C34.5382 40.2394 34.8349 41.0277 35.4511 41.6927C36.0673 42.3577 36.8195 42.7013 37.7077 42.7236L59.2394 43.2635C60.1276 43.2858 60.8961 42.9803 61.5448 42.347C62.1936 41.7137 62.5294 40.9413 62.5523 40.0297L63.4389 4.67243C63.4617 3.76087 63.165 2.97259 62.5488 2.3076C61.9326 1.6426 61.1804 1.29897 60.2922 1.27669L38.7605 0.736795C37.8723 0.714524 37.1039 1.02003 36.4551 1.65331ZM38.6774 4.05154L60.2091 4.59144L59.3225 39.9487L37.7908 39.4089L38.6774 4.05154Z" fill="#827952"/>
<path fill-rule="evenodd" clip-rule="evenodd" d="M27.5901 89.9055C28.2675 89.3029 28.6387 88.5469 28.7037 87.6373L31.2247 52.3589C31.2897 51.4493 31.0298 50.6482 30.445 49.9554C29.8602 49.2626 29.1247 48.8846 28.2385 48.8212L6.75479 47.286C5.86859 47.2227 5.0868 47.4923 4.40944 48.0949C3.73207 48.6975 3.36089 49.4536 3.29589 50.3631L0.774888 85.6415C0.709894 86.5511 0.969796 87.3522 1.55459 88.045C2.13939 88.7378 2.87489 89.1158 3.7611 89.1792L25.2448 90.7144C26.131 90.7777 26.9128 90.5081 27.5901 89.9055ZM25.4811 87.4071L3.99744 85.8718L6.51844 50.5934L28.0021 52.1286L25.4811 87.4071Z" fill="#827952"/>
<path fill-rule="evenodd" clip-rule="evenodd" d="M34.9437 49.6665C34.345 50.3473 34.0689 51.143 34.1155 52.0537L35.921 87.376C35.9675 88.2866 36.3233 89.0501 36.9883 89.6663C37.6534 90.2825 38.4295 90.5679 39.3168 90.5225L60.8272 89.423C61.7145 89.3776 62.4575 89.0146 63.0562 88.3338C63.655 87.653 63.931 86.8573 63.8845 85.9466L62.0789 50.6243C62.0324 49.7136 61.6766 48.9502 61.0116 48.334C60.3466 47.7178 59.5704 47.4324 58.6831 47.4778L37.1727 48.5773C36.2854 48.6226 35.5424 48.9857 34.9437 49.6665ZM37.342 51.8888L58.8524 50.7892L60.6579 86.1115L39.1476 87.2111L37.342 51.8888Z" fill="#827952"/>
</svg>
