<svg width="97" height="97" viewBox="0 0 97 97" fill="none" xmlns="http://www.w3.org/2000/svg">
<g filter="url(#filter0_d_284_143)">
<path d="M38.265 91L36.04 76.9825C34.6308 76.4633 33.1475 75.7587 31.59 74.8687C30.0325 73.9787 28.6604 73.0517 27.4737 72.0875L14.3462 78.095L4 59.85L16.015 51.0612C15.8667 50.3937 15.774 49.6335 15.7369 48.7806C15.6998 47.9277 15.6812 47.1675 15.6812 46.5C15.6812 45.8325 15.6998 45.0723 15.7369 44.2194C15.774 43.3665 15.8667 42.6062 16.015 41.9387L4 33.15L14.3462 14.905L27.4737 20.9125C28.6604 19.9483 30.0325 19.0212 31.59 18.1312C33.1475 17.2412 34.6308 16.5737 36.04 16.1287L38.265 2H58.735L60.96 16.0175C62.3692 16.5367 63.871 17.2227 65.4656 18.0756C67.0602 18.9285 68.4137 19.8742 69.5262 20.9125L82.6537 14.905L93 33.15L80.985 41.7162C81.1333 42.4579 81.226 43.2552 81.2631 44.1081C81.3002 44.961 81.3187 45.7583 81.3187 46.5C81.3187 47.2417 81.3002 48.0204 81.2631 48.8362C81.226 49.6521 81.1333 50.4308 80.985 51.1725L93 59.85L82.6537 78.095L69.5262 72.0875C68.3396 73.0517 66.986 73.9973 65.4656 74.9244C63.9452 75.8515 62.4433 76.5375 60.96 76.9825L58.735 91H38.265ZM48.5 60.9625C52.505 60.9625 55.9167 59.5533 58.735 56.735C61.5533 53.9167 62.9625 50.505 62.9625 46.5C62.9625 42.495 61.5533 39.0833 58.735 36.265C55.9167 33.4467 52.505 32.0375 48.5 32.0375C44.495 32.0375 41.0833 33.4467 38.265 36.265C35.4467 39.0833 34.0375 42.495 34.0375 46.5C34.0375 50.505 35.4467 53.9167 38.265 56.735C41.0833 59.5533 44.495 60.9625 48.5 60.9625ZM48.5 54.2875C46.3492 54.2875 44.5135 53.5273 42.9931 52.0069C41.4727 50.4865 40.7125 48.6508 40.7125 46.5C40.7125 44.3492 41.4727 42.5135 42.9931 40.9931C44.5135 39.4727 46.3492 38.7125 48.5 38.7125C50.6508 38.7125 52.4865 39.4727 54.0069 40.9931C55.5273 42.5135 56.2875 44.3492 56.2875 46.5C56.2875 48.6508 55.5273 50.4865 54.0069 52.0069C52.4865 53.5273 50.6508 54.2875 48.5 54.2875ZM43.605 84.325H53.395L54.9525 71.865C57.4 71.2717 59.7177 70.3446 61.9056 69.0837C64.0935 67.8229 66.0775 66.3025 67.8575 64.5225L79.65 69.64L84.1 61.63L73.6425 53.9537C73.9392 52.6929 74.1802 51.4506 74.3656 50.2269C74.551 49.0031 74.6437 47.7608 74.6437 46.5C74.6437 45.2392 74.5696 43.9969 74.4212 42.7731C74.2729 41.5494 74.0133 40.3071 73.6425 39.0462L84.1 31.37L79.65 23.36L67.8575 28.4775C66.1517 26.5492 64.2233 24.936 62.0725 23.6381C59.9217 22.3402 57.5483 21.5058 54.9525 21.135L53.395 8.675H43.605L42.0475 21.135C39.5258 21.6542 37.171 22.5442 34.9831 23.805C32.7952 25.0658 30.8483 26.6233 29.1425 28.4775L17.35 23.36L12.9 31.37L23.3575 39.0462C23.0608 40.3071 22.8198 41.5494 22.6344 42.7731C22.449 43.9969 22.3562 45.2392 22.3562 46.5C22.3562 47.7608 22.449 49.0031 22.6344 50.2269C22.8198 51.4506 23.0608 52.6929 23.3575 53.9537L12.9 61.63L17.35 69.64L29.1425 64.5225C30.9225 66.3025 32.9065 67.8229 35.0944 69.0837C37.2823 70.3446 39.6 71.2717 42.0475 71.865L43.605 84.325Z" fill="#827952"/>
</g>
<defs>
<filter id="filter0_d_284_143" x="0" y="0" width="97" height="97" filterUnits="userSpaceOnUse" color-interpolation-filters="sRGB">
<feFlood flood-opacity="0" result="BackgroundImageFix"/>
<feColorMatrix in="SourceAlpha" type="matrix" values="0 0 0 0 0 0 0 0 0 0 0 0 0 0 0 0 0 0 127 0" result="hardAlpha"/>
<feOffset dy="2"/>
<feGaussianBlur stdDeviation="2"/>
<feComposite in2="hardAlpha" operator="out"/>
<feColorMatrix type="matrix" values="0 0 0 0 1 0 0 0 0 1 0 0 0 0 1 0 0 0 0.1 0"/>
<feBlend mode="normal" in2="BackgroundImageFix" result="effect1_dropShadow_284_143"/>
<feBlend mode="normal" in="SourceGraphic" in2="effect1_dropShadow_284_143" result="shape"/>
</filter>
</defs>
</svg>
