<svg width="94" height="71" viewBox="0 0 94 71" fill="none" xmlns="http://www.w3.org/2000/svg">
<g filter="url(#filter0_d_284_139)">
<path d="M54.8182 24.2469V19.5219C56.9682 18.6031 59.167 17.9141 61.4148 17.4547C63.6625 16.9953 66.0242 16.7656 68.5 16.7656C70.1939 16.7656 71.8553 16.8969 73.4841 17.1594C75.1129 17.4219 76.7091 17.75 78.2727 18.1438V22.475C76.7091 21.8844 75.1292 21.4414 73.533 21.1461C71.9367 20.8508 70.2591 20.7031 68.5 20.7031C66.0242 20.7031 63.6462 21.0148 61.3659 21.6383C59.0856 22.2617 56.903 23.1313 54.8182 24.2469ZM54.8182 45.9031V41.0797C56.9682 40.1938 59.167 39.5293 61.4148 39.0863C63.6625 38.6434 66.0242 38.4219 68.5 38.4219C70.1939 38.4219 71.8553 38.5531 73.4841 38.8156C75.1129 39.0781 76.7091 39.4063 78.2727 39.8V44.1313C76.7091 43.5406 75.1292 43.0977 73.533 42.8023C71.9367 42.507 70.2591 42.3594 68.5 42.3594C66.0242 42.3594 63.6462 42.6547 61.3659 43.2453C59.0856 43.8359 56.903 44.7219 54.8182 45.9031ZM54.8182 35.075V30.35C56.9682 29.4313 59.167 28.7422 61.4148 28.2828C63.6625 27.8234 66.0242 27.5938 68.5 27.5938C70.1939 27.5938 71.8553 27.725 73.4841 27.9875C75.1129 28.25 76.7091 28.5781 78.2727 28.9719V33.3031C76.7091 32.7125 75.1292 32.2695 73.533 31.9742C71.9367 31.6789 70.2591 31.5313 68.5 31.5313C66.0242 31.5313 63.6462 31.843 61.3659 32.4664C59.0856 33.0898 56.903 33.9594 54.8182 35.075ZM24.3273 51.2188C27.8172 51.2188 31.2143 51.6289 34.5186 52.4492C37.8229 53.2695 41.0712 54.5 44.2636 56.1406V14.1078C41.3318 12.1391 38.1518 10.6133 34.7236 9.53047C31.2955 8.44766 27.83 7.90625 24.3273 7.90625C21.8515 7.90625 19.4246 8.21797 17.0466 8.84141C14.6686 9.46484 12.2742 10.2359 9.86364 11.1547V53.8766C11.8833 52.9578 14.1799 52.2852 16.7534 51.8586C19.3269 51.432 21.8515 51.2188 24.3273 51.2188ZM50.1273 56.1406C53.3849 54.5 56.5773 53.2695 59.7045 52.4492C62.8318 51.6289 66.1545 51.2188 69.6727 51.2188C72.1485 51.2188 74.7057 51.4156 77.3443 51.8094C79.983 52.2031 82.247 52.7281 84.1364 53.3844V11.1547C81.9212 10.0391 79.5816 9.21875 77.1174 8.69375C74.6532 8.16875 72.1716 7.90625 69.6727 7.90625C66.1545 7.90625 62.7504 8.44766 59.4602 9.53047C56.1701 10.6133 53.0591 12.1391 50.1273 14.1078V56.1406ZM47.1955 65C43.8727 62.5063 40.2568 60.5867 36.3477 59.2414C32.4386 57.8961 28.4318 57.2234 24.3273 57.2234C21.9468 57.2234 19.6089 57.5188 17.3136 58.1094C15.0182 58.7 12.7303 59.4219 10.45 60.275C8.945 60.9969 7.49375 60.8984 6.09625 59.9797C4.69875 59.0609 4 57.7484 4 56.0422V10.4656C4 9.48125 4.22803 8.57891 4.68409 7.75859C5.14015 6.93828 5.82424 6.29844 6.73636 5.83906C9.47273 4.52656 12.3197 3.55859 15.2772 2.93516C18.2347 2.31172 21.2514 2 24.3273 2C28.4318 2 32.4223 2.55781 36.2989 3.67344C40.1754 4.78906 43.8076 6.49531 47.1955 8.79219C50.5182 6.49531 54.0852 4.78906 57.8966 3.67344C61.708 2.55781 65.6333 2 69.6727 2C72.7263 2 75.7211 2.31172 78.6572 2.93516C81.5933 3.55859 84.4295 4.52656 87.1659 5.83906C88.078 6.29844 88.7784 6.93828 89.267 7.75859C89.7557 8.57891 90 9.48125 90 10.4656V56.0422C90 57.8727 89.267 59.2655 87.8011 60.2206C86.3352 61.1756 84.8856 61.1938 83.4523 60.275C81.2371 59.3563 78.9818 58.618 76.6864 58.0602C74.3911 57.5023 72.0532 57.2234 69.6727 57.2234C65.5682 57.2234 61.6265 57.9125 57.8477 59.2906C54.0689 60.6688 50.5182 62.5719 47.1955 65Z" fill="#827952"/>
</g>
<defs>
<filter id="filter0_d_284_139" x="0" y="0" width="94" height="71" filterUnits="userSpaceOnUse" color-interpolation-filters="sRGB">
<feFlood flood-opacity="0" result="BackgroundImageFix"/>
<feColorMatrix in="SourceAlpha" type="matrix" values="0 0 0 0 0 0 0 0 0 0 0 0 0 0 0 0 0 0 127 0" result="hardAlpha"/>
<feOffset dy="2"/>
<feGaussianBlur stdDeviation="2"/>
<feComposite in2="hardAlpha" operator="out"/>
<feColorMatrix type="matrix" values="0 0 0 0 1 0 0 0 0 1 0 0 0 0 1 0 0 0 0.1 0"/>
<feBlend mode="normal" in2="BackgroundImageFix" result="effect1_dropShadow_284_139"/>
<feBlend mode="normal" in="SourceGraphic" in2="effect1_dropShadow_284_139" result="shape"/>
</filter>
</defs>
</svg>
