<svg width="40" height="40" viewBox="0 0 40 40" fill="none" xmlns="http://www.w3.org/2000/svg">
<path d="M7.1 31.25C9.2 29.7833 11.2833 28.6583 13.35 27.875C15.4167 27.0917 17.6333 26.7 20 26.7C22.3667 26.7 24.5917 27.0917 26.675 27.875C28.7583 28.6583 30.85 29.7833 32.95 31.25C34.4167 29.45 35.4583 27.6333 36.075 25.8C36.6917 23.9667 37 22.0333 37 20C37 15.1667 35.375 11.125 32.125 7.875C28.875 4.625 24.8333 3 20 3C15.1667 3 11.125 4.625 7.875 7.875C4.625 11.125 3 15.1667 3 20C3 22.0333 3.31667 23.9667 3.95 25.8C4.58333 27.6333 5.63333 29.45 7.1 31.25ZM20.0234 40C17.2745 40 14.6833 39.475 12.25 38.425C9.81667 37.375 7.69167 35.9417 5.875 34.125C4.05833 32.3083 2.625 30.1872 1.575 27.7617C0.525 25.3362 0 22.7445 0 19.9867C0 17.2289 0.525 14.6417 1.575 12.225C2.625 9.80833 4.05833 7.69167 5.875 5.875C7.69167 4.05833 9.81277 2.625 12.2383 1.575C14.6638 0.525 17.2555 0 20.0133 0C22.7711 0 25.3583 0.525 27.775 1.575C30.1917 2.625 32.3083 4.05833 34.125 5.875C35.9417 7.69167 37.375 9.80887 38.425 12.2266C39.475 14.6443 40 17.2277 40 19.9766C40 22.7255 39.475 25.3167 38.425 27.75C37.375 30.1833 35.9417 32.3083 34.125 34.125C32.3083 35.9417 30.1911 37.375 27.7734 38.425C25.3557 39.475 22.7723 40 20.0234 40ZM20 37C21.8333 37 23.625 36.7333 25.375 36.2C27.125 35.6667 28.85 34.7333 30.55 33.4C28.85 32.2 27.1167 31.2833 25.35 30.65C23.5833 30.0167 21.8 29.7 20 29.7C18.2 29.7 16.4167 30.0167 14.65 30.65C12.8833 31.2833 11.15 32.2 9.45 33.4C11.15 34.7333 12.875 35.6667 14.625 36.2C16.375 36.7333 18.1667 37 20 37Z" fill="#827952"/>
<path fill-rule="evenodd" clip-rule="evenodd" d="M19.9891 24C17.7385 24 15.8443 23.2275 14.3066 21.6826C12.7689 20.1376 12 18.2398 12 15.9891C12 13.7385 12.7725 11.8443 14.3174 10.3066C15.8624 8.76886 17.7602 8 20.0109 8C22.2615 8 24.1557 8.77248 25.6934 10.3174C27.2311 11.8624 28 13.7602 28 16.0109C28 18.2615 27.2275 20.1557 25.6826 21.6934C24.1376 23.2311 22.2398 24 19.9891 24ZM23.2409 19.2409C22.4039 20.0779 21.3236 20.4964 20 20.4964C18.6764 20.4964 17.5961 20.0779 16.7591 19.2409C15.9221 18.4039 15.5036 17.3236 15.5036 16C15.5036 14.6764 15.9221 13.5961 16.7591 12.7591C17.5961 11.9221 18.6764 11.5036 20 11.5036C21.3236 11.5036 22.4039 11.9221 23.2409 12.7591C24.0779 13.5961 24.4964 14.6764 24.4964 16C24.4964 17.3236 24.0779 18.4039 23.2409 19.2409Z" fill="#827952"/>
</svg>
