<svg width="96" height="60" viewBox="0 0 96 60" fill="none" xmlns="http://www.w3.org/2000/svg">
<g filter="url(#filter0_d_284_141)">
<path d="M4 54V48.2583C4 45.4729 5.26806 43.2057 7.80417 41.4567C10.3403 39.7078 13.667 38.8333 17.7845 38.8333C18.5279 38.8333 19.2427 38.8514 19.929 38.8875C20.6152 38.9236 21.2944 39.0013 21.9667 39.1206C21.4778 40.3735 21.1111 41.6434 20.8667 42.9302C20.6222 44.217 20.5 45.5597 20.5 46.9583V54H4ZM26 54V46.9583C26 44.6472 26.5347 42.5347 27.6042 40.6208C28.6736 38.7069 30.1861 37.0278 32.1417 35.5833C34.0972 34.1389 36.4347 33.0556 39.1542 32.3333C41.8736 31.6111 44.8222 31.25 48 31.25C51.2389 31.25 54.2181 31.6111 56.9375 32.3333C59.6569 33.0556 61.9944 34.1389 63.95 35.5833C65.9056 37.0278 67.4028 38.7069 68.4417 40.6208C69.4806 42.5347 70 44.6472 70 46.9583V54H26ZM75.5 54V46.9583C75.5 45.5239 75.3931 44.1722 75.1792 42.9033C74.9653 41.6344 74.6139 40.3763 74.125 39.1288C74.7972 39.004 75.4747 38.9236 76.1573 38.8875C76.8401 38.8514 77.5376 38.8333 78.25 38.8333C82.375 38.8333 85.6979 39.6916 88.2188 41.4082C90.7396 43.1248 92 45.4082 92 48.2583V54H75.5ZM31.5 47.5H64.5V46.85C64.5 44.1778 62.9569 41.9931 59.8708 40.2958C56.7847 38.5986 52.8278 37.75 48 37.75C43.1722 37.75 39.2153 38.5986 36.1292 40.2958C33.0431 41.9931 31.5 44.2139 31.5 46.9583V47.5ZM17.7103 35.5833C15.9645 35.5833 14.4653 34.8408 13.2125 33.3558C11.9597 31.8707 11.3333 30.0854 11.3333 28C11.3333 25.9056 11.9616 24.1181 13.2182 22.6375C14.4748 21.1569 15.9854 20.4167 17.75 20.4167C19.5222 20.4167 21.0347 21.1569 22.2875 22.6375C23.5403 24.1181 24.1667 25.9212 24.1667 28.0469C24.1667 30.1101 23.5403 31.8819 22.2875 33.3625C21.0347 34.8431 19.509 35.5833 17.7103 35.5833ZM78.2103 35.5833C76.4646 35.5833 74.9653 34.8408 73.7125 33.3558C72.4597 31.8707 71.8333 30.0854 71.8333 28C71.8333 25.9056 72.4616 24.1181 73.7182 22.6375C74.9748 21.1569 76.4854 20.4167 78.25 20.4167C80.0222 20.4167 81.5347 21.1569 82.7875 22.6375C84.0403 24.1181 84.6667 25.9212 84.6667 28.0469C84.6667 30.1101 84.0403 31.8819 82.7875 33.3625C81.5347 34.8431 80.009 35.5833 78.2103 35.5833ZM48 28C44.9444 28 42.3472 26.7361 40.2083 24.2083C38.0694 21.6806 37 18.6111 37 15C37 11.3167 38.0694 8.22917 40.2083 5.7375C42.3472 3.24583 44.9444 2 48 2C51.1167 2 53.7292 3.24583 55.8375 5.7375C57.9458 8.22917 59 11.3167 59 15C59 18.6111 57.9458 21.6806 55.8375 24.2083C53.7292 26.7361 51.1167 28 48 28ZM48.0322 21.5C49.5996 21.5 50.9028 20.8734 51.9417 19.6203C52.9806 18.3672 53.5 16.8144 53.5 14.962C53.5 13.1095 52.976 11.5694 51.928 10.3417C50.88 9.11389 49.5814 8.5 48.0322 8.5C46.4829 8.5 45.1736 9.11927 44.1042 10.3578C43.0347 11.5963 42.5 13.1311 42.5 14.962C42.5 16.7929 43.0302 18.3403 44.0905 19.6042C45.1509 20.8681 46.4647 21.5 48.0322 21.5Z" fill="#827952"/>
</g>
<defs>
<filter id="filter0_d_284_141" x="0" y="0" width="96" height="60" filterUnits="userSpaceOnUse" color-interpolation-filters="sRGB">
<feFlood flood-opacity="0" result="BackgroundImageFix"/>
<feColorMatrix in="SourceAlpha" type="matrix" values="0 0 0 0 0 0 0 0 0 0 0 0 0 0 0 0 0 0 127 0" result="hardAlpha"/>
<feOffset dy="2"/>
<feGaussianBlur stdDeviation="2"/>
<feComposite in2="hardAlpha" operator="out"/>
<feColorMatrix type="matrix" values="0 0 0 0 1 0 0 0 0 1 0 0 0 0 1 0 0 0 0.1 0"/>
<feBlend mode="normal" in2="BackgroundImageFix" result="effect1_dropShadow_284_141"/>
<feBlend mode="normal" in="SourceGraphic" in2="effect1_dropShadow_284_141" result="shape"/>
</filter>
</defs>
</svg>
