<svg width="94" height="85" viewBox="0 0 94 85" fill="none" xmlns="http://www.w3.org/2000/svg">
<g filter="url(#filter0_d_284_137)">
<path d="M85.5176 36.3292V72.5833C85.5176 74.2944 84.8758 75.7917 83.5921 77.075C82.3085 78.3583 80.8109 79 79.0993 79H14.8095C13.0979 79 11.6003 78.3583 10.3167 77.075C9.03301 75.7917 8.39118 74.2944 8.39118 72.5833V36.3292C6.39438 34.6181 5.07506 32.5148 4.43323 30.0194C3.79141 27.5241 3.86272 25.0287 4.64718 22.5333L9.24695 8.09583C9.81747 6.17083 10.8159 4.67361 12.2422 3.60417C13.6684 2.53472 15.3087 2 17.1628 2H76.3181C78.3149 2 80.0621 2.55255 81.5597 3.65764C83.0573 4.76273 84.0913 6.24213 84.6619 8.09583L89.3686 22.5333C90.1531 25.0287 90.2065 27.5241 89.5291 30.0194C88.8516 32.5148 87.5144 34.6181 85.5176 36.3292ZM56.6353 33.0139C58.7034 33.0139 60.4506 32.3366 61.8769 30.9819C63.3032 29.6273 63.8737 27.9875 63.5885 26.0625L60.9142 8.41667H50.217V26.0625C50.217 27.9162 50.8232 29.5382 52.0356 30.9285C53.2479 32.3187 54.7812 33.0139 56.6353 33.0139ZM36.6317 33.0139C38.6285 33.0139 40.3222 32.3366 41.7128 30.9819C43.1034 29.6273 43.7987 27.9875 43.7987 26.0625V8.41667H33.1016L30.4273 26.0625C30.1421 27.9162 30.6413 29.5382 31.9249 30.9285C33.2086 32.3187 34.7775 33.0139 36.6317 33.0139ZM17.1628 33.0139C18.8744 33.0139 20.3542 32.4257 21.6022 31.2493C22.8502 30.0729 23.5811 28.6292 23.7951 26.9181L26.5763 8.41667H15.8792L10.9585 24.0306C10.2454 26.2407 10.5306 28.2905 11.8143 30.1799C13.0979 32.0692 14.8808 33.0139 17.1628 33.0139ZM76.746 33.0139C79.028 33.0139 80.8287 32.087 82.148 30.2333C83.4673 28.3796 83.7704 26.312 83.0573 24.0306L78.1366 8.41667H67.4394L70.2207 26.9181C70.4347 28.6292 71.1656 30.0729 72.4136 31.2493C73.6616 32.4257 75.1057 33.0139 76.746 33.0139ZM14.8095 72.5833H79.0993V39.3236C79.1707 39.3949 78.9389 39.4306 78.404 39.4306H76.746C74.9631 39.4306 73.2694 39.0562 71.6648 38.3076C70.0602 37.559 68.4735 36.4005 66.9046 34.8319C65.7636 36.2579 64.3373 37.3808 62.6257 38.2007C60.9142 39.0206 59.0244 39.4306 56.9562 39.4306C54.8168 39.4306 52.9805 39.1275 51.4472 38.5215C49.914 37.9155 48.4342 36.8995 47.0079 35.4736C45.9382 36.7569 44.5832 37.7373 42.943 38.4146C41.3027 39.0919 39.4486 39.4306 37.3805 39.4306C35.1697 39.4306 33.2086 39.0384 31.497 38.2542C29.7855 37.4699 28.3235 36.3292 27.1112 34.8319C25.3996 36.3292 23.7238 37.4699 22.0835 38.2542C20.4433 39.0384 18.8031 39.4306 17.1628 39.4306H15.7187C15.2552 39.4306 14.9521 39.3949 14.8095 39.3236V72.5833Z" fill="#827952"/>
</g>
<defs>
<filter id="filter0_d_284_137" x="0" y="0" width="94" height="85" filterUnits="userSpaceOnUse" color-interpolation-filters="sRGB">
<feFlood flood-opacity="0" result="BackgroundImageFix"/>
<feColorMatrix in="SourceAlpha" type="matrix" values="0 0 0 0 0 0 0 0 0 0 0 0 0 0 0 0 0 0 127 0" result="hardAlpha"/>
<feOffset dy="2"/>
<feGaussianBlur stdDeviation="2"/>
<feComposite in2="hardAlpha" operator="out"/>
<feColorMatrix type="matrix" values="0 0 0 0 1 0 0 0 0 1 0 0 0 0 1 0 0 0 0.1 0"/>
<feBlend mode="normal" in2="BackgroundImageFix" result="effect1_dropShadow_284_137"/>
<feBlend mode="normal" in="SourceGraphic" in2="effect1_dropShadow_284_137" result="shape"/>
</filter>
</defs>
</svg>
