<svg width="102" height="32" viewBox="0 0 102 32" fill="none" xmlns="http://www.w3.org/2000/svg">
<path d="M15.7812 8.43746C15.4583 8.43746 15.1562 8.55725 14.875 8.79684C14.5938 9.026 14.3125 9.28121 14.0312 9.56246C13.7604 9.8333 13.4792 10.0885 13.1875 10.3281C12.8958 10.5573 12.5833 10.6718 12.25 10.6718H0.609375C0.786458 10.6406 0.96875 10.5625 1.15625 10.4375C1.35417 10.3125 1.55208 10.1718 1.75 10.0156C1.94792 9.84892 2.14583 9.67184 2.34375 9.48434C2.54167 9.29684 2.73958 9.13017 2.9375 8.98434C3.13542 8.82809 3.33333 8.69788 3.53125 8.59371C3.72917 8.48955 3.92708 8.43746 4.125 8.43746H15.7812ZM9.15625 13.6406C9.14583 13.9323 9.02604 14.2239 8.79688 14.5156C8.57812 14.8073 8.32812 15.0989 8.04688 15.3906C7.77604 15.6823 7.51562 15.9739 7.26562 16.2656C7.02604 16.5468 6.875 16.8177 6.8125 17.0781L7.20312 5.42184C7.21354 5.20309 7.27604 4.99475 7.39062 4.79684C7.51562 4.59892 7.66146 4.41142 7.82812 4.23434C8.00521 4.04684 8.19271 3.86455 8.39062 3.68746C8.58854 3.51038 8.77083 3.3333 8.9375 3.15621C9.11458 2.97913 9.26042 2.79684 9.375 2.60934C9.48958 2.42184 9.55208 2.21871 9.5625 1.99996L9.15625 13.6406Z" fill="white"/>
<path d="M31.2188 15.625C31.1562 16.3645 30.9323 17.0989 30.5469 17.8281C30.1615 18.5468 29.6719 19.2291 29.0781 19.875C28.4948 20.5312 27.8281 21.1302 27.0781 21.6718C26.3385 22.2135 25.5677 22.6718 24.7656 23.0468C23.974 23.4323 23.1875 23.7187 22.4062 23.9062C21.625 24.1041 20.901 24.1718 20.2344 24.1093C19.7552 24.0677 19.2969 23.9739 18.8594 23.8281C18.4323 23.6927 18.0885 23.5208 17.8281 23.3125C17.5677 23.1145 17.4219 22.8906 17.3906 22.6406C17.3594 22.401 17.5104 22.1562 17.8438 21.9062C18.0938 21.7083 18.3542 21.5156 18.625 21.3281C18.8646 21.1718 19.125 21.0052 19.4062 20.8281C19.6875 20.6614 19.974 20.5208 20.2656 20.4062C20.1302 20.5625 20.0521 20.7031 20.0312 20.8281C20.0208 20.9531 20.0312 21.0625 20.0625 21.1562C20.1042 21.2708 20.1719 21.3698 20.2656 21.4531C20.3594 21.526 20.5104 21.6041 20.7188 21.6875C20.9375 21.7708 21.1927 21.8437 21.4844 21.9062C21.7865 21.9791 22.1146 22.0364 22.4688 22.0781C22.8229 22.1302 23.1875 22.1562 23.5625 22.1562C24.3542 22.1562 25.0521 22.0156 25.6562 21.7343C26.2708 21.4531 26.7812 21.0729 27.1875 20.5937C27.6042 20.1145 27.9167 19.552 28.125 18.9062C28.3333 18.2604 28.4375 17.5729 28.4375 16.8437C28.4375 15.9791 28.2812 15.2135 27.9688 14.5468C27.6562 13.8698 27.2292 13.302 26.6875 12.8437C26.1562 12.3854 25.5365 12.0364 24.8281 11.7968C24.1198 11.5573 23.3698 11.4375 22.5781 11.4375C21.8281 11.4375 21.1042 11.5468 20.4062 11.7656C19.7188 11.9843 19.0885 12.2395 18.5156 12.5312C18.901 12.0312 19.1927 11.4843 19.3906 10.8906C19.599 10.2864 19.75 9.67184 19.8438 9.04684C19.9375 8.42184 19.9896 7.79684 20 7.17184C20.0104 6.53642 20.0156 5.93225 20.0156 5.35934C20.0156 5.0885 20.0104 4.80725 20 4.51559C19.9896 4.22392 19.974 3.92705 19.9531 3.62496H18.7031L21.6719 1.74996C22.8073 1.81246 23.8073 1.85413 24.6719 1.87496C25.5365 1.8958 26.3073 1.90621 26.9844 1.90621C27.7656 1.90621 28.4167 1.8958 28.9375 1.87496C29.4688 1.85413 29.8906 1.82809 30.2031 1.79684C30.5677 1.76559 30.8542 1.72913 31.0625 1.68746C30.6875 1.93746 30.2344 2.17705 29.7031 2.40621C29.1823 2.62496 28.6198 2.81767 28.0156 2.98434C27.4219 3.14059 26.8125 3.2708 26.1875 3.37496C25.5625 3.46871 24.9583 3.5208 24.375 3.53121C24.2396 3.53121 24.0885 3.53642 23.9219 3.54684C23.6198 3.56767 23.2135 3.5833 22.7031 3.59371V3.98434C22.7031 6.23434 22.3854 8.31246 21.75 10.2187C22.2083 10.0312 22.6667 9.901 23.125 9.82809C23.5938 9.74475 24.026 9.69267 24.4219 9.67184C24.8698 9.651 25.3125 9.65621 25.75 9.68746C26.5 9.7708 27.2188 9.97392 27.9062 10.2968C28.5938 10.6198 29.1927 11.0416 29.7031 11.5625C30.224 12.0833 30.625 12.6927 30.9062 13.3906C31.1875 14.0781 31.2917 14.8229 31.2188 15.625Z" fill="white"/>
<path d="M50.3281 9.14059C50.3281 10.2656 50.2396 11.2916 50.0625 12.2187C49.8854 13.1354 49.651 13.9687 49.3594 14.7187C49.0677 15.4687 48.7344 16.1406 48.3594 16.7343C47.9844 17.3281 47.6042 17.8593 47.2188 18.3281C46.75 18.8906 46.224 19.4583 45.6406 20.0312C45.0677 20.5937 44.4531 21.1041 43.7969 21.5625C43.151 22.0104 42.474 22.3802 41.7656 22.6718C41.0677 22.9531 40.3594 23.0937 39.6406 23.0937C38.8385 23.0937 38.1406 22.9375 37.5469 22.625C36.9531 22.302 36.4427 21.8802 36.0156 21.3593C35.5885 20.8385 35.2344 20.2448 34.9531 19.5781C34.6823 18.901 34.4635 18.2031 34.2969 17.4843C34.1406 16.7656 34.0312 16.052 33.9688 15.3437C33.9062 14.6354 33.875 13.9895 33.875 13.4062C33.875 12.7395 33.9062 12.0729 33.9688 11.4062C34.0312 10.7291 34.125 10.0833 34.25 9.46871C34.3854 8.84371 34.5469 8.25517 34.7344 7.70309C34.9323 7.151 35.1615 6.66142 35.4219 6.23434C35.7448 5.69267 36.1198 5.17184 36.5469 4.67184C36.9844 4.17184 37.4479 3.70829 37.9375 3.28121C38.4375 2.84371 38.9479 2.44788 39.4688 2.09371C40 1.72913 40.5208 1.41663 41.0312 1.15621C41.5417 0.895796 42.0312 0.692671 42.5 0.546837C42.9688 0.401004 43.3906 0.322879 43.7656 0.312462C44.5885 0.291629 45.3229 0.406212 45.9688 0.656212C46.6146 0.895796 47.1771 1.23434 47.6562 1.67184C48.1458 2.10934 48.5573 2.62496 48.8906 3.21871C49.2344 3.80204 49.5104 4.42704 49.7188 5.09371C49.9375 5.74996 50.0938 6.42704 50.1875 7.12496C50.2812 7.82288 50.3281 8.49475 50.3281 9.14059ZM47.5781 10.3593C47.599 9.41142 47.4948 8.45829 47.2656 7.49996C47.0469 6.53121 46.6979 5.65621 46.2188 4.87496C45.75 4.09371 45.1458 3.45829 44.4062 2.96871C43.6667 2.47913 42.7917 2.23434 41.7812 2.23434C40.9792 2.23434 40.2865 2.43225 39.7031 2.82809C39.1302 3.2135 38.6406 3.71871 38.2344 4.34371C37.8281 4.96871 37.5 5.68225 37.25 6.48434C37 7.276 36.8021 8.07809 36.6562 8.89059C36.5208 9.69267 36.4271 10.4739 36.375 11.2343C36.3333 11.9843 36.3125 12.6302 36.3125 13.1718C36.3125 13.7343 36.3542 14.3229 36.4375 14.9375C36.5312 15.5416 36.6719 16.1354 36.8594 16.7187C37.0469 17.302 37.2812 17.8593 37.5625 18.3906C37.8542 18.9114 38.1979 19.3698 38.5938 19.7656C38.9896 20.151 39.4427 20.4635 39.9531 20.7031C40.4635 20.9323 41.0312 21.0468 41.6562 21.0468C42.5 21.0468 43.224 20.8645 43.8281 20.5C44.4427 20.1354 44.9635 19.6562 45.3906 19.0625C45.8281 18.4687 46.1823 17.7916 46.4531 17.0312C46.724 16.2708 46.9375 15.4948 47.0938 14.7031C47.25 13.9114 47.3594 13.1406 47.4219 12.3906C47.4948 11.6302 47.5469 10.9531 47.5781 10.3593Z" fill="white"/>
<path d="M70.0781 16.4531C69.526 17.0781 69.0156 17.6302 68.5469 18.1093C68.0885 18.5781 67.6823 18.9739 67.3281 19.2968C66.9115 19.6718 66.5365 19.9948 66.2031 20.2656C65.2865 20.9948 64.4896 21.3593 63.8125 21.3593C63.4271 21.3593 63.0938 21.2552 62.8125 21.0468C62.5417 20.8489 62.3073 20.5885 62.1094 20.2656C61.9115 19.9427 61.75 19.5781 61.625 19.1718C61.5 18.7656 61.401 18.3593 61.3281 17.9531C61.2656 17.5364 61.2188 17.1406 61.1875 16.7656C61.1667 16.3906 61.1562 16.0729 61.1562 15.8125C61.1562 15.1145 61.2344 14.3593 61.3906 13.5468C61.5573 12.7343 61.7917 11.927 62.0938 11.125C62.4062 10.3125 62.7865 9.53642 63.2344 8.79684C63.6823 8.04684 64.1927 7.38538 64.7656 6.81246C65.349 6.22913 65.9844 5.76559 66.6719 5.42184C67.3698 5.07809 68.1198 4.90621 68.9219 4.90621C69.1406 4.90621 69.3229 4.94788 69.4688 5.03121C69.6146 5.10413 69.7344 5.2083 69.8281 5.34371C69.9219 5.47913 69.9844 5.63017 70.0156 5.79684C70.0573 5.9635 70.0781 6.13538 70.0781 6.31246C70.0781 6.7708 69.974 7.22913 69.7656 7.68746C69.5573 8.1458 69.276 8.59892 68.9219 9.04684C68.5781 9.48434 68.1823 9.91663 67.7344 10.3437C67.2865 10.7604 66.8177 11.1614 66.3281 11.5468C65.849 11.9218 65.3698 12.276 64.8906 12.6093C64.4115 12.9427 63.974 13.2448 63.5781 13.5156V13.8593C63.5781 14.1198 63.5885 14.4375 63.6094 14.8125C63.6406 15.177 63.6875 15.5625 63.75 15.9687C63.8229 16.3645 63.9167 16.7604 64.0312 17.1562C64.1458 17.552 64.2917 17.9062 64.4688 18.2187C64.6458 18.5312 64.8542 18.7864 65.0938 18.9843C65.3438 19.1718 65.6302 19.2656 65.9531 19.2656C66.099 19.2656 66.25 19.2448 66.4062 19.2031C66.5625 19.151 66.7188 19.0677 66.875 18.9531C67.1458 18.7343 67.4531 18.4323 67.7969 18.0468C68.0885 17.7135 68.4271 17.2812 68.8125 16.75C69.1979 16.2187 69.6198 15.5468 70.0781 14.7343V16.4531ZM67.1719 7.23434C67.0469 7.0885 66.8854 6.99475 66.6875 6.95309C66.4896 6.91142 66.276 6.92184 66.0469 6.98434C65.8281 7.04684 65.6094 7.16663 65.3906 7.34371C65.1823 7.5208 65.0052 7.75517 64.8594 8.04684C64.651 8.4635 64.4219 9.06246 64.1719 9.84371C63.9219 10.6145 63.7448 11.5052 63.6406 12.5156C63.974 12.3177 64.3177 12.0885 64.6719 11.8281C65.026 11.5677 65.3646 11.2916 65.6875 11C66.0208 10.7083 66.3177 10.4062 66.5781 10.0937C66.849 9.7708 67.0573 9.44788 67.2031 9.12496C67.3594 8.79163 67.4427 8.46871 67.4531 8.15621C67.4635 7.8333 67.3698 7.526 67.1719 7.23434Z" fill="white"/>
<path d="M87.2656 4.99996C87.3385 5.0208 87.3594 5.09892 87.3281 5.23434C87.3073 5.35934 87.2448 5.5208 87.1406 5.71871C87.0469 5.90621 86.9167 6.11455 86.75 6.34371C86.5833 6.56246 86.3906 6.78121 86.1719 6.99996C85.9635 7.2083 85.7344 7.401 85.4844 7.57809C85.2448 7.74475 84.9948 7.86455 84.7344 7.93746C84.849 7.7083 84.8958 7.5208 84.875 7.37496C84.8542 7.21871 84.8073 7.09892 84.7344 7.01559C84.651 6.91142 84.5417 6.8385 84.4062 6.79684C84.0104 6.68225 83.6042 6.67705 83.1875 6.78121C82.7812 6.87496 82.4323 7.1458 82.1406 7.59371L79.7031 11.6562C79.9844 12.552 80.2969 13.4427 80.6406 14.3281C80.9844 15.2135 81.3594 16.0104 81.7656 16.7187C82.1719 17.427 82.6146 18.0052 83.0938 18.4531C83.5833 18.8906 84.1094 19.1093 84.6719 19.1093C84.8802 19.1093 85.1042 19.0625 85.3438 18.9687C85.5938 18.8645 85.849 18.6979 86.1094 18.4687C85.526 19.0833 84.9896 19.5729 84.5 19.9375C84.0104 20.2916 83.5885 20.5625 83.2344 20.75C82.8177 20.9687 82.4427 21.1145 82.1094 21.1875C81.599 21.0208 81.1354 20.7343 80.7188 20.3281C80.3125 19.9114 79.9375 19.4166 79.5938 18.8437C79.2604 18.2604 78.9531 17.6198 78.6719 16.9218C78.3906 16.2239 78.125 15.5052 77.875 14.7656C77.6667 15.1198 77.4115 15.4948 77.1094 15.8906C76.8177 16.2864 76.5 16.6823 76.1562 17.0781C75.8125 17.4635 75.4583 17.8385 75.0938 18.2031C74.7292 18.5573 74.3802 18.8698 74.0469 19.1406C74.2656 19.1614 74.4688 19.177 74.6562 19.1875C74.8542 19.1979 75.0417 19.2031 75.2188 19.2031C75.8646 19.2031 76.3542 19.1614 76.6875 19.0781C77.0208 18.9948 77.2083 18.9427 77.25 18.9218C76.6562 19.3906 76.151 19.7812 75.7344 20.0937C75.3177 20.3958 74.9271 20.6354 74.5625 20.8125C74.2083 20.9895 73.8542 21.1093 73.5 21.1718C73.1562 21.2448 72.75 21.2812 72.2812 21.2812C71.7604 21.2812 71.1198 21.25 70.3594 21.1875L72.6719 18.8906C72.7865 18.9218 72.901 18.9531 73.0156 18.9843C73.1406 19.0052 73.2604 19.026 73.375 19.0468C73.6042 18.8698 73.8229 18.6614 74.0312 18.4218C74.2396 18.1718 74.4271 17.9427 74.5938 17.7343C74.7812 17.4843 74.9583 17.2291 75.125 16.9687C75.3646 16.5729 75.6771 16.0364 76.0625 15.3593C76.4479 14.6823 76.8854 13.9479 77.375 13.1562C77.2083 12.6041 77.0417 12.0625 76.875 11.5312C76.7083 11 76.5365 10.4948 76.3594 10.0156C76.1927 9.526 76.0156 9.07809 75.8281 8.67184C75.651 8.25517 75.4635 7.8958 75.2656 7.59371C75.0885 7.3333 74.8802 7.1458 74.6406 7.03121C74.4115 6.91663 74.1719 6.85934 73.9219 6.85934C73.5156 6.85934 73.125 6.96871 72.75 7.18746C72.375 7.3958 72.0677 7.62496 71.8281 7.87496C72.0781 7.54163 72.3542 7.19267 72.6562 6.82809C72.9688 6.45309 73.3021 6.11455 73.6562 5.81246C74.0208 5.49996 74.401 5.24475 74.7969 5.04684C75.1927 4.84892 75.6042 4.74996 76.0312 4.74996C76.4167 4.74996 76.776 4.86975 77.1094 5.10934C77.4531 5.34892 77.7552 5.74996 78.0156 6.31246C78.1719 6.69788 78.3542 7.23955 78.5625 7.93746C78.7708 8.62496 79.0052 9.3958 79.2656 10.25C79.8073 9.47913 80.3438 8.7708 80.875 8.12496C81.4062 7.47913 81.9219 6.9583 82.4219 6.56246C83.0365 6.11455 83.6042 5.7708 84.125 5.53121C84.6458 5.29163 85.1094 5.12496 85.5156 5.03121C85.9219 4.93746 86.2708 4.901 86.5625 4.92184C86.8646 4.93225 87.099 4.9583 87.2656 4.99996Z" fill="white"/>
<path d="M94.3438 29.125C93.9583 29.5208 93.6042 29.8593 93.2812 30.1406C92.9688 30.4323 92.6927 30.6666 92.4531 30.8437C92.1823 31.052 91.9271 31.2291 91.6875 31.375C91.4062 31.552 91.1198 31.6823 90.8281 31.7656C90.5365 31.8593 90.2656 31.9166 90.0156 31.9375C89.7656 31.9583 89.5469 31.9427 89.3594 31.8906C89.1823 31.8385 89.0625 31.7604 89 31.6562C88.9271 31.5625 88.8906 31.2916 88.8906 30.8437C88.8906 30.4062 88.9115 29.8593 88.9531 29.2031C88.9948 28.5573 89.0417 27.8385 89.0938 27.0468C89.1562 26.2552 89.2083 25.4531 89.25 24.6406L89.4062 21.1875C89.1354 21.1875 88.875 21.1823 88.625 21.1718C88.375 21.1614 88.1354 21.1562 87.9062 21.1562C87.6771 21.1562 87.4792 21.1562 87.3125 21.1562C87.1562 21.1666 87.0365 21.1875 86.9531 21.2187C87.4531 20.8645 87.8958 20.5208 88.2812 20.1875C88.6771 19.8541 89.0833 19.5833 89.5 19.375C89.5312 18.5833 89.5625 17.7708 89.5938 16.9375C89.6354 16.1041 89.6719 15.2916 89.7031 14.5C89.7448 13.6979 89.776 12.9375 89.7969 12.2187C89.8281 11.4895 89.8542 10.8437 89.875 10.2812C89.9062 9.7083 89.9271 9.23434 89.9375 8.85934C89.9479 8.47392 89.9531 8.22392 89.9531 8.10934C89.9531 7.78642 89.8385 7.51038 89.6094 7.28121C89.3906 7.04163 89.099 6.92184 88.7344 6.92184C88.5573 6.92184 88.3646 6.9583 88.1562 7.03121C87.9479 7.09371 87.724 7.19788 87.4844 7.34371C87.776 7.07288 88.0729 6.79163 88.375 6.49996C88.6875 6.2083 89 5.94788 89.3125 5.71871C89.6354 5.47913 89.9583 5.28642 90.2812 5.14059C90.6146 4.98434 90.9531 4.90621 91.2969 4.90621C91.6198 4.90621 91.8854 5.01038 92.0938 5.21871C92.3125 5.42705 92.4219 5.78121 92.4219 6.28121C92.4219 6.54163 92.4062 7.0833 92.375 7.90621C92.3542 8.71871 92.3177 9.7135 92.2656 10.8906C92.474 10.3802 92.6615 9.95309 92.8281 9.60934C93.0052 9.25517 93.151 8.96871 93.2656 8.74996C93.401 8.48955 93.5156 8.28642 93.6094 8.14059C93.9323 7.67184 94.2865 7.22913 94.6719 6.81246C95.0573 6.3958 95.4479 6.026 95.8438 5.70309C96.2396 5.38017 96.6354 5.11455 97.0312 4.90621C97.4271 4.68746 97.8073 4.54684 98.1719 4.48434C98.5469 4.43225 98.9115 4.47913 99.2656 4.62496C99.6198 4.76038 99.9375 5.00517 100.219 5.35934C100.5 5.7135 100.734 6.17705 100.922 6.74996C101.109 7.31246 101.219 7.98955 101.25 8.78121C101.271 9.66663 101.177 10.5729 100.969 11.5C100.76 12.4166 100.453 13.3177 100.047 14.2031C99.651 15.0781 99.1667 15.9114 98.5938 16.7031C98.0208 17.4948 97.3802 18.2031 96.6719 18.8281C95.9635 19.4427 95.1979 19.9583 94.375 20.375C93.5521 20.7812 92.6979 21.0416 91.8125 21.1562L91.4531 29.4531C91.5365 29.4948 91.6354 29.5364 91.75 29.5781C91.8438 29.6093 91.9531 29.6354 92.0781 29.6562C92.2135 29.6875 92.3698 29.7031 92.5469 29.7031C92.7865 29.7031 93.0625 29.6614 93.375 29.5781C93.6875 29.5052 94.0104 29.3541 94.3438 29.125ZM93.3438 19.0781C93.6458 19.0781 93.9427 19.0729 94.2344 19.0625C94.526 19.0416 94.7969 19.0156 95.0469 18.9843C95.3073 18.9427 95.5417 18.8906 95.75 18.8281C95.9583 18.7552 96.1302 18.6666 96.2656 18.5625C96.474 18.4062 96.724 18.1458 97.0156 17.7812C97.3073 17.4166 97.5833 16.9583 97.8438 16.4062C98.1146 15.8437 98.3438 15.1875 98.5312 14.4375C98.7188 13.6875 98.8125 12.8437 98.8125 11.9062C98.8125 11.6145 98.7969 11.2656 98.7656 10.8593C98.7448 10.4531 98.6979 10.0364 98.625 9.60934C98.5521 9.18225 98.4479 8.7708 98.3125 8.37496C98.1771 7.96871 98 7.62496 97.7812 7.34371C97.5729 7.05205 97.3177 6.84371 97.0156 6.71871C96.7135 6.59371 96.3542 6.59892 95.9375 6.73434C95.7188 6.80725 95.4792 6.97913 95.2188 7.24996C94.9583 7.51038 94.6875 7.90621 94.4062 8.43746C94.1354 8.96871 93.8594 9.651 93.5781 10.4843C93.3073 11.3073 93.0573 12.3177 92.8281 13.5156C92.7552 13.8177 92.6719 14.1562 92.5781 14.5312C92.4948 14.8541 92.401 15.2343 92.2969 15.6718C92.2031 16.0989 92.1042 16.5625 92 17.0625L91.9062 19.0468C92.1458 19.0468 92.3854 19.052 92.625 19.0625C92.8646 19.0729 93.1042 19.0781 93.3438 19.0781Z" fill="white"/>
</svg>
