<svg width="40" height="34" viewBox="0 0 40 34" fill="none" xmlns="http://www.w3.org/2000/svg">
<path d="M32.7 33.8L30.6 31.7L34.25 28H25.2V25H34.25L30.6 21.3L32.7 19.2L40 26.5L32.7 33.8ZM3 28C2.175 28 1.46875 27.7062 0.88125 27.1187C0.29375 26.5312 0 25.825 0 25V3C0 2.175 0.29375 1.46875 0.88125 0.88125C1.46875 0.29375 2.175 0 3 0H31C31.825 0 32.5313 0.29375 33.1188 0.88125C33.7063 1.46875 34 2.175 34 3V14.6C33.75 14.5667 33.5 14.5417 33.25 14.525C33 14.5083 32.75 14.5 32.5 14.5C32.2333 14.5 31.9833 14.5083 31.75 14.525C31.5167 14.5417 31.2667 14.5667 31 14.6V5.35L16.8 15.4L3 5.4V25H20.55C20.5167 25.2667 20.5 25.4917 20.5 25.675V26.3625C20.5 26.6375 20.5083 26.9125 20.525 27.1875C20.5417 27.4625 20.5833 27.7333 20.65 28H3ZM4.8 3L16.8 11.7L29.1 3H4.8Z" fill="#827952"/>
</svg>
